<svg viewBox="0 0 900 340" xmlns="http://www.w3.org/2000/svg" role="img" aria-label="$SABIN price chart">
  <rect x="0" y="0" width="900" height="340" fill="#07140f" rx="12" />
  <defs>
    <linearGradient id="areaFill" x1="0" y1="0" x2="0" y2="1">
      <stop offset="0%" stop-color="#10b981" stop-opacity="0.35" />
      <stop offset="100%" stop-color="#10b981" stop-opacity="0" />
    </linearGradient>
  </defs>
  <line x1="60" y1="50.00" x2="870" y2="50.00" stroke="#123524" stroke-width="1" stroke-dasharray="4,4" /><text x="50" y="54.00" text-anchor="end" font-size="11" fill="#5fdca0" font-family="monospace">$1.19</text><line x1="60" y1="112.50" x2="870" y2="112.50" stroke="#123524" stroke-width="1" stroke-dasharray="4,4" /><text x="50" y="116.50" text-anchor="end" font-size="11" fill="#5fdca0" font-family="monospace">$1.14</text><line x1="60" y1="175.00" x2="870" y2="175.00" stroke="#123524" stroke-width="1" stroke-dasharray="4,4" /><text x="50" y="179.00" text-anchor="end" font-size="11" fill="#5fdca0" font-family="monospace">$1.08</text><line x1="60" y1="237.50" x2="870" y2="237.50" stroke="#123524" stroke-width="1" stroke-dasharray="4,4" /><text x="50" y="241.50" text-anchor="end" font-size="11" fill="#5fdca0" font-family="monospace">$1.03</text><line x1="60" y1="300.00" x2="870" y2="300.00" stroke="#123524" stroke-width="1" stroke-dasharray="4,4" /><text x="50" y="304.00" text-anchor="end" font-size="11" fill="#5fdca0" font-family="monospace">$0.98</text>
  <path d="M 60.00,275.81 L 222.00,215.41 L 384.00,266.14 L 546.00,205.26 L 708.00,141.36 L 870.00,74.19 L 870.00,300.00 L 60.00,300.00 Z" fill="url(#areaFill)" stroke="none" />
  <path d="M 60.00,275.81 L 222.00,215.41 L 384.00,266.14 L 546.00,205.26 L 708.00,141.36 L 870.00,74.19" fill="none" stroke="#34d399" stroke-width="2.5" stroke-linejoin="round" stroke-linecap="round" />
  <circle cx="60.00" cy="275.81" r="2.5" fill="#34d399" opacity="0.85" /><circle cx="222.00" cy="215.41" r="2.5" fill="#34d399" opacity="0.85" /><circle cx="384.00" cy="266.14" r="2.5" fill="#34d399" opacity="0.85" /><circle cx="546.00" cy="205.26" r="2.5" fill="#34d399" opacity="0.85" /><circle cx="708.00" cy="141.36" r="2.5" fill="#34d399" opacity="0.85" />
  
    <circle cx="870.00" cy="74.19" r="3" fill="#a7f3d0" stroke="#07140f" stroke-width="1" />
    <text x="870.00" y="64.19" text-anchor="middle" font-size="10" fill="#a7f3d0" font-family="monospace">$1.17</text>
    <circle cx="60.00" cy="275.81" r="3" fill="#fca5a5" stroke="#07140f" stroke-width="1" />
    <text x="60.00" y="293.81" text-anchor="middle" font-size="10" fill="#fca5a5" font-family="monospace">$1.00</text>
    
  
    <circle cx="870.00" cy="74.19" r="4" fill="#34d399" />
    <circle cx="870.00" cy="74.19" r="4" fill="#34d399" opacity="0.6">
      <animate attributeName="r" values="4;12;4" dur="1.8s" repeatCount="indefinite" />
      <animate attributeName="opacity" values="0.6;0;0.6" dur="1.8s" repeatCount="indefinite" />
    </circle>
    

  <text x="60" y="24" font-size="14" fill="#a7f3d0" font-family="monospace" font-weight="bold">$SABIN / USD</text>
  <text x="60" y="40" font-size="11" fill="#34d399" font-family="monospace">▲ +0.1669 (+16.69%) · last 6 trades</text>

  <g transform="translate(740, 14)">
    <rect x="0" y="0" width="130" height="24" rx="6" fill="#0f2a1d" stroke="#34d399" stroke-width="1" />
    <text x="65" y="16" text-anchor="middle" font-size="12" fill="#34d399" font-family="monospace" font-weight="bold">$1.1669</text>
  </g>

  <g transform="translate(740, 40)">
    <circle cx="8" cy="6" r="4" fill="#ef4444">
      <animate attributeName="opacity" values="1;0.3;1" dur="1.5s" repeatCount="indefinite" />
    </circle>
    <text x="18" y="10" font-size="10" fill="#f87171" font-family="monospace" font-weight="bold">LIVE</text>
  </g>
</svg>