<!-- Generated: 2026-07-20T16:14:35.100436+00:00 -->
<svg xmlns="http://www.w3.org/2000/svg" width="900" height="320" viewBox="0 0 900 320">
  <rect width="100%" height="100%" fill="#07140f" rx="24"/>
  <rect x="18" y="18" width="864" height="284" rx="20" fill="#091a12" stroke="#1f3d34" stroke-width="2"/>
  <text x="52" y="72" fill="#86efac" font-family="Segoe UI, Arial, sans-serif" font-size="18" font-weight="600">Market Price History</text>
  <text x="52" y="96" fill="#6ee7b7" font-family="Segoe UI, Arial, sans-serif" font-size="13">Live trend • emerald mode</text>
  <line x1="50" y1="50.00" x2="850" y2="50.00" stroke="#1f3d34" stroke-width="1" stroke-dasharray="4 4"/><line x1="50" y1="105.00" x2="850" y2="105.00" stroke="#1f3d34" stroke-width="1" stroke-dasharray="4 4"/><line x1="50" y1="160.00" x2="850" y2="160.00" stroke="#1f3d34" stroke-width="1" stroke-dasharray="4 4"/><line x1="50" y1="215.00" x2="850" y2="215.00" stroke="#1f3d34" stroke-width="1" stroke-dasharray="4 4"/><line x1="50" y1="270.00" x2="850" y2="270.00" stroke="#1f3d34" stroke-width="1" stroke-dasharray="4 4"/>
  <polyline points="50.00,270.00 138.89,244.60 227.78,219.19 316.67,193.79 405.56,168.38 494.44,193.79 583.33,92.17 672.22,75.40 761.11,115.03 850.00,96.24" fill="none" stroke="#34d399" stroke-width="4" stroke-linecap="round" stroke-linejoin="round"/>
  <circle cx="850.00" cy="96.24" r="8" fill="#ecfdf5" stroke="#34d399" stroke-width="3"/>
  <text x="750" y="72" fill="#34d399" font-family="Segoe UI, Arial, sans-serif" font-size="16" font-weight="700">$4.42</text>
  <text x="50" y="304" fill="#86efac" font-family="Segoe UI, Arial, sans-serif" font-size="13">Price trend</text>
</svg>
